<?xml version="1.0" encoding="UTF-8"?> <!-- Generator: Adobe Illustrator 19.1.0, SVG Export Plug-In . SVG Version: 6.00 Build 0) --> <svg xmlns="http://www.w3.org/2000/svg" xmlns:xlink="http://www.w3.org/1999/xlink" id="Capa_1" x="0px" y="0px" viewBox="0 0 90 69.6" style="enable-background:new 0 0 90 69.6;" xml:space="preserve"> <style type="text/css"> .st0{fill:#838383;} </style> <g> <g> <g> <path class="st0" d="M56,24.5H34c-0.7,0-1.3,0.6-1.3,1.3v11.5c0,0.7,0.6,1.3,1.3,1.3H56c0.7,0,1.3-0.6,1.3-1.3V25.7 C57.2,25,56.7,24.5,56,24.5z M54.7,36H35.3v-9h19.4L54.7,36L54.7,36z"></path> </g> </g> <g> <g> <path class="st0" d="M28.2,24.5H17.4c-4.6,0-8.3,3.7-8.3,8.3v4.5c0,0.7,0.6,1.3,1.3,1.3h17.8c0.7,0,1.3-0.6,1.3-1.3V25.7 C29.4,25,28.8,24.5,28.2,24.5z M26.9,36H11.6v-3.2c0-3.2,2.6-5.8,5.8-5.8h9.5L26.9,36L26.9,36z"></path> </g> </g> <g> <g> <path class="st0" d="M72.6,24.5H61.9c-0.7,0-1.3,0.6-1.3,1.3v11.5c0,0.7,0.6,1.3,1.3,1.3h17.8c0.7,0,1.3-0.6,1.3-1.3v-4.5 C80.9,28.2,77.2,24.5,72.6,24.5z M78.4,36H63.1v-9h9.5c3.2,0,5.8,2.6,5.8,5.8V36z"></path> </g> </g> <g> <g> <path class="st0" d="M62.8,54.4c-2.6,0-4.7,2.1-4.7,4.7s2.1,4.7,4.7,4.7c2.6,0,4.7-2.1,4.7-4.7S65.4,54.4,62.8,54.4z M62.8,61.4 c-1.2,0-2.2-1-2.2-2.2c0-1.2,1-2.2,2.2-2.2c1.2,0,2.2,1,2.2,2.2S64,61.4,62.8,61.4z"></path> </g> </g> <g> <g> <path class="st0" d="M25.6,54.4c-2.6,0-4.7,2.1-4.7,4.7s2.1,4.7,4.7,4.7c2.6,0,4.7-2.1,4.7-4.7S28.2,54.4,25.6,54.4z M25.6,61.4 c-1.2,0-2.2-1-2.2-2.2c0-1.2,1-2.2,2.2-2.2c1.2,0,2.2,1,2.2,2.2S26.8,61.4,25.6,61.4z"></path> </g> </g> <g> <g> <path class="st0" d="M67.7,45.1h-5.8c-0.7,0-1.3,0.6-1.3,1.3c0,0.7,0.6,1.3,1.3,1.3h5.8c0.7,0,1.3-0.6,1.3-1.3 C68.9,45.7,68.4,45.1,67.7,45.1z"></path> </g> </g> <g> <g> <path class="st0" d="M25.6,52.8C25.6,52.8,25.6,52.8,25.6,52.8C25.6,52.8,25.6,52.8,25.6,52.8c3.4,0,6.3,2.9,6.3,6.3c0,0,0,0,0,0 c0,3.5-2.8,6.3-6.3,6.3c-3.5,0-6.3-2.8-6.3-6.3C19.2,55.7,22.1,52.8,25.6,52.8z M11.8,55.7c0.3,0,0.5,0.2,0.5,0.5v2.4 c0,0.3-0.2,0.5-0.5,0.5H4.9c-0.3,0-0.5-0.2-0.5-0.5v-2.4c0-0.3,0.2-0.5,0.5-0.5c0,0,0.4,0,0.4,0C5.3,55.7,11.8,55.7,11.8,55.7z M32.8,19.4h-3.4h-2.5h-9.5C10,19.4,4,25.4,4,32.8v9.1v11.4c-1.2,0.4-2.1,1.5-2.1,2.9v2.4c0,1.7,1.4,3,3,3h6.9 c1.6,0,2.9-1.3,3-2.9h1.9c0,0.1,0,0.3,0,0.4c0,4.9,4,8.8,8.8,8.8c4.9,0,8.8-4,8.8-8.8c0-0.1,0-0.3,0-0.4h10.8 c0.7,0,1.3-0.6,1.3-1.3c0-0.7-0.6-1.3-1.3-1.3H33.9c0,0,0-0.1,0-0.1c0,0,0,0,0,0c-1.3-3.4-4.6-5.8-8.3-5.8c0,0,0,0,0,0 c-3.7,0-7.1,2.4-8.3,5.9h-2.4v0c0-1.6-1.4-3-3-3H6.6v-10h9.9c0.7,0,1.3-0.6,1.3-1.3c0-0.7-0.6-1.3-1.3-1.3H6.6v-7.8 c0-6,4.9-10.8,10.8-10.8h55.2v0c6,0,10.8,4.9,10.8,10.8v7.8H21.5c-0.7,0-1.3,0.6-1.3,1.3c0,0.7,0.6,1.3,1.3,1.3h61.9v10h-5.2 c-1.4,0-2.5,0.9-2.9,2.1c0,0.1-0.1,0.2-0.1,0.3c0,0.2-0.1,0.4-0.1,0.6v0h-4.1c-1.1-3.2-4-5.5-7.4-5.9c0,0,0,0-0.1,0 C60,50,56.4,52,54.8,55.3c-0.1,0.3-0.3,0.6-0.4,0.9h-4.2c-0.7,0-1.3,0.6-1.3,1.3c0,0.7,0.6,1.3,1.3,1.3h3.7c0,0.1,0,0.3,0,0.4 c0,4.9,4,8.8,8.8,8.8s8.8-4,8.8-8.8c0-0.1,0-0.3,0-0.4h3.6c0.1,1.6,1.4,2.9,3,2.9h6.9c1.7,0,3-1.4,3-3v-2.4 c0-1.4-0.9-2.5-2.1-2.9V41.9v-9.1c0-7.4-6-13.4-13.4-13.4H35.3L32.8,19.4z M62.8,65.5c-3.5,0-6.3-2.8-6.3-6.3 c0-3.5,3.1-6.5,6.6-6.3c3.3,0.2,6,3,6,6.3C69.1,62.6,66.2,65.5,62.8,65.5z M85.6,58.6c0,0.3-0.2,0.5-0.5,0.5h-6.9 c-0.3,0-0.5-0.2-0.5-0.5c0,0,0-2.4,0-2.4c0-0.3,0.2-0.5,0.5-0.5c0,0,6.5,0,6.5,0c0.4,0,0.9,0,0.9,0.5L85.6,58.6L85.6,58.6z"></path> </g> </g> </g> <g> <path class="st0" d="M40.6,49.7l-3.1-0.5l0,0l-2.1,0.9l0.5,2.3l0,0l2.4,2.1l5.1-0.5L40.6,49.7z M42.7,53.8l-5.5-1.3l2.9,0.1 L42.7,53.8z M40.2,52.4l-1.8-2.3l4.4,3.6L40.2,52.4z M37.5,49.4l3.1,0.5l2.4,3.9l-4.7-3.8c0,0-0.1,0-0.2,0c0,0,0,0.1,0,0.2l1.8,2.2 L39.4,52l-3.8-1.8L37.5,49.4z M36,52.4l-0.5-2.1l3.8,1.8l0.6,0.3l-2.7,0c-0.1,0-0.1,0-0.1,0.1c0,0.1,0,0.1,0.1,0.1l5.7,1.3 l-4.6,0.4L36,52.4z"></path> <path class="st0" d="M44,54.1l5.1,0.5l2.4-2.1l0,0l0.5-2.3l-2.1-0.9l0,0l-3.1,0.5L44,54.1z M47.3,52.6l2.9-0.1l-5.5,1.3L47.3,52.6z M44.6,53.7l4.4-3.6l-1.8,2.3L44.6,53.7z M51.8,50.2L48,52l-0.5,0.3l1.8-2.2c0,0,0-0.1,0-0.2c0,0-0.1,0-0.2,0l-4.7,3.8l2.4-3.9 l3.1-0.5L51.8,50.2z M49.1,54.5L44.5,54l5.7-1.3c0.1,0,0.1-0.1,0.1-0.1c0-0.1-0.1-0.1-0.1-0.1l-2.7,0l0.6-0.3l3.8-1.8l-0.5,2.1 L49.1,54.5z"></path> <path class="st0" d="M46.4,49.7l-0.9-3l0,0l-1.8-1.5l-1.9,1.5l0,0l-0.9,3l2.6,4.4L46.4,49.7z M43.5,53.3l-1.2-5.5l1.2,2.7 L43.5,53.3z M43.7,50.4l1.3-2.6l-1.3,5.5L43.7,50.4z M45.4,46.7l0.9,3l-2.5,3.9l1.4-5.9c0-0.1,0-0.1-0.1-0.1c-0.1,0-0.1,0-0.1,0.1 l-1.2,2.6l0-0.6l0.1-4.2L45.4,46.7z M42,46.6l1.7-1.3l-0.1,4.2l0,0.6l-1.1-2.5c0-0.1-0.1-0.1-0.2-0.1c-0.1,0-0.1,0.1-0.1,0.2 l1.2,5.7l-2.4-3.9L42,46.6z"></path> </g> </svg> 