<?xml version="1.0" encoding="UTF-8"?> <!-- Generator: Adobe Illustrator 19.1.0, SVG Export Plug-In . SVG Version: 6.00 Build 0) --> <svg xmlns="http://www.w3.org/2000/svg" xmlns:xlink="http://www.w3.org/1999/xlink" id="Capa_1" x="0px" y="0px" viewBox="0 0 65.5 77.4" style="enable-background:new 0 0 65.5 77.4;" xml:space="preserve"> <style type="text/css"> .st0{fill:#838383;} </style> <g> <g> <g> <rect x="46.3" y="56.2" class="st0" width="6.1" height="2"></rect> <rect x="38.2" y="56.2" class="st0" width="6.1" height="2"></rect> <rect x="30" y="56.2" class="st0" width="6.1" height="2"></rect> <path class="st0" d="M62.6,36.6L42.4,16.5c-0.6-0.6-1.4-0.9-2.2-0.9h0c-0.8,0-1.6,0.3-2.1,0.9L16.7,37.9H5.6 c-1.7,0-3.1,1.4-3.1,3.1v28.5c0,1.7,1.4,3.1,3.1,3.1h15.1l3,3c0.6,0.6,1.4,0.9,2.2,0.9h0c0.8,0,1.6-0.3,2.1-0.9l3-3h23.4 c1.7,0,3.1-1.4,3.1-3.1V46l5.1-5.1c0.6-0.6,0.9-1.3,0.9-2.2C63.5,38,63.2,37.2,62.6,36.6z M49.6,26.6L38.3,37.9h-8.6l15.6-15.6 L49.6,26.6z M39.6,17.9c0.4-0.4,1-0.4,1.4,0c0,0,0,0,0,0l2.9,2.9L26.8,37.9h-7.2L39.6,17.9z M26.6,74.1c-0.2,0.2-0.4,0.3-0.7,0.3 c-0.3,0-0.5-0.1-0.7-0.3l-1.6-1.6h4.6L26.6,74.1z M55.5,69.4c0,0.6-0.5,1-1,1H5.6c-0.6,0-1-0.5-1-1V55.2h50.9V69.4z M55.5,53.1 H4.6V47h50.9V53.1z M55.5,45H4.6v-4.1c0-0.6,0.5-1,1-1h48.9c0.6,0,1,0.5,1,1V45z M61.2,39.5L61.2,39.5l-3.6,3.6v-2.2 c0-1.7-1.4-3.1-3.1-3.1H41.2l9.9-9.9l10.1,10.1c0.2,0.2,0.3,0.5,0.3,0.7C61.5,39.1,61.3,39.3,61.2,39.5z"></path> <path class="st0" d="M12.3,68.4c0.1-0.1,0.3-0.3,0.4-0.4c1.3,1.6,3.7,1.9,5.4,0.7c1.1-0.8,1.8-2,1.8-3.4c0-2.2-1.8-4.1-4.1-4.1 c-0.2,0-0.4,0-0.6,0.1l0,0c0,0,0,0,0,0c-0.9,0.2-1.8,0.6-2.4,1.4c-1.5-1.7-4-1.9-5.7-0.4c-1.7,1.5-1.9,4-0.4,5.7 C8,69.7,10.6,69.9,12.3,68.4z M15.5,63.3c0.1,0,0.2,0,0.3,0c1.1,0,2,0.9,2,2c0,0.4-0.1,0.8-0.4,1.2c0,0-0.1,0.1-0.1,0.2 c0,0,0,0,0,0c-0.4,0.4-0.9,0.7-1.5,0.7c-1.1,0-2-0.9-2-2.1C13.8,64.3,14.5,63.5,15.5,63.3z M9.7,63.3c1.1,0,2,0.9,2,2s-0.9,2-2,2 s-2-0.9-2-2S8.5,63.3,9.7,63.3z"></path> </g> </g> </g> </svg> 